<svg width="160" height="240" version="1.1" viewBox="0 0 256 480" xmlns="http://www.w3.org/2000/svg" xmlns:xlink="http://www.w3.org/1999/xlink">
 <defs>
  <filter id="filter3290">
   <feGaussianBlur stdDeviation="4.25"/>
  </filter>
  <linearGradient id="linearGradient2553" x1="360" x2="360" y1="718" y2="901" gradientTransform="matrix(.36 0 0 .36 -10.4 106)" gradientUnits="userSpaceOnUse" xlink:href="#linearGradient3251"/>
  <linearGradient id="linearGradient3251">
   <stop style="stop-color:#f5f5f5;stop-opacity:.96" offset="0"/>
   <stop style="stop-color:#f5f5f5;stop-opacity:0" offset="1"/>
  </linearGradient>
  <linearGradient id="linearGradient2545" x1="360" x2="360" y1="718" y2="901" gradientTransform="matrix(-.36 0 0 -.36 265 372)" gradientUnits="userSpaceOnUse" xlink:href="#linearGradient3251"/>
  <linearGradient id="linearGradient2537" x1="469" x2="469" y1="198" y2="367" gradientTransform="matrix(.36 0 0 .36 -10.4 12)" gradientUnits="userSpaceOnUse" xlink:href="#linearGradient3265"/>
  <linearGradient id="linearGradient3265">
   <stop style="stop-color:#fff" offset="0"/>
   <stop style="stop-color:#fff;stop-opacity:0" offset="1"/>
  </linearGradient>
  <linearGradient id="linearGradient2529" x1="469" x2="469" y1="198" y2="367" gradientTransform="matrix(.36 0 0 .36 -10.4 200)" gradientUnits="userSpaceOnUse" xlink:href="#linearGradient3265"/>
  <linearGradient id="linearGradient2530" x1="469" x2="469" y1="198" y2="367" gradientTransform="matrix(.36 0 0 .36 -10.4 106)" gradientUnits="userSpaceOnUse" xlink:href="#linearGradient3265"/>
 </defs>
 <path d="m30 24.5c-4 0-7.2 3.2-7.2 7.2v47.6c0 4 3.2 7.3 7.2 7.3h131v17.2h-9.3l23.9 12.1 24.3-12.1h-9.3v-17.2h44.6c4 0 7.3-3.3 7.3-7.3v-47.6c0-4-3.3-7.2-7.3-7.2h-206z" style="fill-opacity:.5;filter:url(#filter3290)"/>
 <path d="m171 111 23.9-12.2h-9.3v-17.3h44.6c4 0 7.3-3.2 7.3-7.2v-47.6c0-4.1-3.3-7.3-7.3-7.3h-206c-4 0-7.2 3.2-7.2 7.3v47.6c0 4 3.2 7.2 7.2 7.2h131v17.3h-9.3l24.3 12.2z" style="fill:#f60"/>
 <path d="m171 111 23.9-12.2h-9.3v-17.3h44.6c4 0 7.3-3.2 7.3-7.2v-47.6c0-4.1-3.3-7.3-7.3-7.3h-206c-4 0-7.2 3.2-7.2 7.3v47.6c0 4 3.2 7.2 7.2 7.2h131v17.3h-9.3l24.3 12.2z" style="fill:url(#linearGradient2545);stroke-linejoin:round;stroke-width:2;stroke:#000"/>
 <text x="39.84" y="55.7" style="fill:#ffffff;font-family:'Liberation Sans';line-height:0%;stroke-width:1px" xml:space="preserve"><tspan x="39.84" y="55.7" style="font-size:20px;line-height:1.25">Aplicacions d'usuari</tspan></text>
 <path d="m89 92.1-23.9 12.2h9.3v17.3h-44.6c-4 0-7.3 3.2-7.3 7.2v47.6c0 4 3.3 7.3 7.3 7.3h131v17.2h-9.3l23.9 12.1 24.3-12.1h-9.3v-17.2h44.6c4 0 7.3-3.3 7.3-7.3v-47.6c0-4-3.3-7.2-7.3-7.2h-131v-17.3h9.3z" style="fill-opacity:.5;filter:url(#filter3290)"/>
 <path d="m83.6 84-23.9 12.2h9.3v17.3h-44.6c-4 0-7.3 3.2-7.3 7.2v47.6c0 4 3.3 7.3 7.3 7.3h131v17.2h-9.3l23.9 12.1 24.3-12.1h-9.3v-17.2h44.6c4 0 7.3-3.3 7.3-7.3v-47.6c0-4-3.3-7.2-7.3-7.2h-131v-17.3h9.3z" style="fill:#5aa02c"/>
 <path d="m83.6 84-23.9 12.2h9.3v17.3h-44.6c-4 0-7.3 3.2-7.3 7.2v47.6c0 4 3.3 7.3 7.3 7.3h131v17.2h-9.3l23.9 12.1 24.3-12.1h-9.3v-17.2h44.6c4 0 7.3-3.3 7.3-7.3v-47.6c0-4-3.3-7.2-7.3-7.2h-131v-17.3h9.3z" style="fill:url(#linearGradient2537);stroke-linejoin:round;stroke-width:2;stroke:#000"/>
 <text x="69.75" y="149.7" style="fill:#ffffff;font-family:'Liberation Sans';line-height:0%;stroke-width:1px" xml:space="preserve"><tspan x="69.75" y="149.7" style="font-size:20px;line-height:1.25">Entorn gràfic</tspan></text>
 <path d="m89 186-23.9 12.2h9.3v17.3h-44.6c-4 0-7.3 3.2-7.3 7.2v47.6c0 4 3.3 7.3 7.3 7.3h131v17.2h-9.3l23.9 12.1 24.3-12.1h-9.3v-17.2h44.6c4 0 7.3-3.3 7.3-7.3v-47.6c0-4-3.3-7.2-7.3-7.2h-131v-17.3h9.3z" style="fill-opacity:.5;filter:url(#filter3290)"/>
 <path d="m83.6 178-23.9 12.2h9.3v17.3h-44.6c-4 0-7.3 3.2-7.3 7.2v47.6c0 4 3.3 7.3 7.3 7.3h131v17.2h-9.3l23.9 12.1 24.3-12.1h-9.3v-17.2h44.6c4 0 7.3-3.3 7.3-7.3v-47.6c0-4-3.3-7.2-7.3-7.2h-131v-17.3h9.3z" style="fill:#dfcb00"/>
 <path d="m83.6 178-23.9 12.2h9.3v17.3h-44.6c-4 0-7.3 3.2-7.3 7.2v47.6c0 4 3.3 7.3 7.3 7.3h131v17.2h-9.3l23.9 12.1 24.3-12.1h-9.3v-17.2h44.6c4 0 7.3-3.3 7.3-7.3v-47.6c0-4-3.3-7.2-7.3-7.2h-131v-17.3h9.3z" style="fill:url(#linearGradient2530);stroke-linejoin:round;stroke-width:2;stroke:#000"/>
 <text x="37.61" y="243.6" style="fill:#ffffff;font-family:'Liberation Sans';line-height:0%;stroke-width:1px" xml:space="preserve"><tspan x="37.61" y="243.6" style="font-size:20px;line-height:1.25">Aplicacions del nucli</tspan></text>
 <path d="m89 280-23.9 12.2h9.3v17.3h-44.6c-4 0-7.3 3.2-7.3 7.2v47.6c0 4 3.3 7.3 7.3 7.3h131v17.2h-9.3l23.9 12.1 24.3-12.1h-9.3v-17.2h44.6c4 0 7.3-3.3 7.3-7.3v-47.6c0-4-3.3-7.2-7.3-7.2h-131v-17.3h9.3z" style="fill-opacity:.5;filter:url(#filter3290)"/>
 <path d="m83.6 272-23.9 12.2h9.3v17.3h-44.6c-4 0-7.3 3.2-7.3 7.2v47.6c0 4 3.3 7.3 7.3 7.3h131v17.2h-9.3l23.9 12.1 24.3-12.1h-9.3v-17.2h44.6c4 0 7.3-3.3 7.3-7.3v-47.6c0-4-3.3-7.2-7.3-7.2h-131v-17.3h9.3z" style="fill:#2c5aa0"/>
 <path d="m83.6 272-23.9 12.2h9.3v17.3h-44.6c-4 0-7.3 3.2-7.3 7.2v47.6c0 4 3.3 7.3 7.3 7.3h131v17.2h-9.3l23.9 12.1 24.3-12.1h-9.3v-17.2h44.6c4 0 7.3-3.3 7.3-7.3v-47.6c0-4-3.3-7.2-7.3-7.2h-131v-17.3h9.3z" style="fill:url(#linearGradient2529);stroke-linejoin:round;stroke-width:2;stroke:#000"/>
 <text x="82.08" y="339.6" style="fill:#ffffff;font-family:'Liberation Sans';line-height:0%;stroke-width:1px" xml:space="preserve"><tspan x="82.08" y="339.6" style="font-size:20px;line-height:1.25">Nucli S.O.</tspan></text>
 <path d="m89 371-23.9 12.2h9.3v17.3h-44.6c-4 0-7.3 3.2-7.3 7.2v47.6c0 4 3.3 7.3 7.3 7.3h206c4 0 7.2-3.3 7.2-7.3v-47.6c0-4-3.2-7.2-7.2-7.2h-131v-17.3h9.3l-24.3-12.2z" style="fill-opacity:.5;filter:url(#filter3290)"/>
 <path d="m83.6 366-23.9 12.2h9.3v17.3h-44.6c-4 0-7.3 3.2-7.3 7.2v47.6c0 4 3.3 7.3 7.3 7.3h206c4 0 7.2-3.3 7.2-7.3v-47.6c0-4-3.2-7.2-7.2-7.2h-131v-17.3h9.3l-24.3-12.2z" style="fill:#800000"/>
 <path d="m83.6 366-23.9 12.2h9.3v17.3h-44.6c-4 0-7.3 3.2-7.3 7.2v47.6c0 4 3.3 7.3 7.3 7.3h206c4 0 7.2-3.3 7.2-7.3v-47.6c0-4-3.2-7.2-7.2-7.2h-131v-17.3h9.3l-24.3-12.2z" style="fill:url(#linearGradient2553);stroke-linejoin:round;stroke-width:2;stroke:#000"/>
 <text x="83.6" y="433.6" style="fill:#ffffff;font-family:'Liberation Sans';line-height:0%;stroke-width:1px" xml:space="preserve"><tspan x="83.6" y="433.6" style="font-size:20px;line-height:1.25">Hardware</tspan></text>
</svg>
